<svg width="520" height="420" viewBox="0 0 520 420" fill="none" xmlns="http://www.w3.org/2000/svg">
  <rect width="520" height="420" rx="28" fill="#F7F8FA"/>
  <circle cx="410" cy="84" r="46" fill="#CFFAFE"/>
  <circle cx="112" cy="326" r="54" fill="#EDE9FE"/>
  <rect x="112" y="78" width="296" height="250" rx="26" fill="#FFFFFF" stroke="#E5E7EB" stroke-width="3"/>
  <rect x="146" y="118" width="120" height="18" rx="9" fill="#111827"/>
  <rect x="146" y="164" width="204" height="14" rx="7" fill="#D1D5DB"/>
  <rect x="146" y="194" width="172" height="14" rx="7" fill="#D1D5DB"/>
  <rect x="146" y="224" width="210" height="14" rx="7" fill="#D1D5DB"/>
  <rect x="146" y="264" width="86" height="32" rx="16" fill="#DBEAFE"/>
  <rect x="246" y="264" width="82" height="32" rx="16" fill="#EDE9FE"/>
  <circle cx="390" cy="122" r="32" fill="#2563EB"/>
  <path d="M378 122H402M390 110V134" stroke="#FFFFFF" stroke-width="5" stroke-linecap="round"/>
  <path d="M116 96C84 106 64 132 58 168" stroke="#38BDF8" stroke-width="8" stroke-linecap="round"/>
  <path d="M406 320C434 306 450 282 456 248" stroke="#A78BFA" stroke-width="8" stroke-linecap="round"/>
  <rect x="60" y="242" width="74" height="54" rx="18" fill="#FFFFFF" stroke="#E5E7EB" stroke-width="3"/>
  <path d="M80 268H114M80 282H104" stroke="#94A3B8" stroke-width="6" stroke-linecap="round"/>
</svg>
