<svg width="520" height="420" viewBox="0 0 520 420" fill="none" xmlns="http://www.w3.org/2000/svg">
  <rect width="520" height="420" rx="28" fill="#F7F8FA"/>
  <circle cx="402" cy="104" r="50" fill="#CFFAFE"/>
  <circle cx="128" cy="326" r="56" fill="#EDE9FE"/>
  <path d="M110 148C110 133.641 121.641 122 136 122H208L234 150H386C400.359 150 412 161.641 412 176V302C412 316.359 400.359 328 386 328H136C121.641 328 110 316.359 110 302V148Z" fill="#DBEAFE" stroke="#BFDBFE" stroke-width="3"/>
  <rect x="142" y="182" width="238" height="110" rx="22" fill="#FFFFFF" stroke="#E5E7EB" stroke-width="3"/>
  <rect x="168" y="210" width="94" height="14" rx="7" fill="#111827"/>
  <rect x="168" y="244" width="166" height="12" rx="6" fill="#CBD5E1"/>
  <rect x="168" y="270" width="126" height="12" rx="6" fill="#CBD5E1"/>
  <circle cx="388" cy="308" r="36" fill="#2563EB"/>
  <path d="M376 304C376 294 384 286 394 286C404 286 412 294 412 304C412 314 404 322 394 322C384 322 376 314 376 304Z" stroke="#FFFFFF" stroke-width="5"/>
  <path d="M416 326L428 338" stroke="#FFFFFF" stroke-width="6" stroke-linecap="round"/>
  <rect x="80" y="316" width="86" height="38" rx="19" fill="#FFFFFF" stroke="#E5E7EB" stroke-width="3"/>
  <path d="M102 335H144" stroke="#94A3B8" stroke-width="7" stroke-linecap="round"/>
</svg>
