<svg width="720" height="520" viewBox="0 0 720 520" fill="none" xmlns="http://www.w3.org/2000/svg">
  <rect width="720" height="520" rx="36" fill="#F7F8FA"/>
  <circle cx="592" cy="96" r="64" fill="#CFFAFE"/>
  <circle cx="134" cy="388" r="78" fill="#EDE9FE"/>
  <rect x="118" y="86" width="484" height="330" rx="28" fill="#FFFFFF" stroke="#E5E7EB" stroke-width="3"/>
  <rect x="146" y="122" width="112" height="258" rx="18" fill="#EFF6FF" stroke="#DBEAFE" stroke-width="3"/>
  <rect x="284" y="122" width="146" height="258" rx="18" fill="#F8FAFC" stroke="#E5E7EB" stroke-width="3"/>
  <rect x="456" y="122" width="118" height="258" rx="18" fill="#FFFFFF" stroke="#E5E7EB" stroke-width="3"/>
  <rect x="166" y="148" width="72" height="20" rx="10" fill="#2563EB"/>
  <rect x="166" y="188" width="72" height="14" rx="7" fill="#CBD5E1"/>
  <rect x="166" y="222" width="62" height="14" rx="7" fill="#CBD5E1"/>
  <rect x="166" y="256" width="80" height="14" rx="7" fill="#CBD5E1"/>
  <circle cx="170" cy="316" r="7" fill="#38BDF8"/>
  <rect x="186" y="310" width="52" height="12" rx="6" fill="#94A3B8"/>
  <circle cx="170" cy="344" r="7" fill="#A78BFA"/>
  <rect x="186" y="338" width="46" height="12" rx="6" fill="#94A3B8"/>
  <rect x="306" y="150" width="100" height="18" rx="9" fill="#111827"/>
  <rect x="306" y="196" width="96" height="12" rx="6" fill="#D1D5DB"/>
  <rect x="306" y="220" width="72" height="12" rx="6" fill="#D1D5DB"/>
  <rect x="306" y="254" width="96" height="12" rx="6" fill="#D1D5DB"/>
  <rect x="306" y="286" width="78" height="12" rx="6" fill="#D1D5DB"/>
  <rect x="306" y="328" width="86" height="28" rx="14" fill="#CFFAFE"/>
  <rect x="476" y="152" width="70" height="16" rx="8" fill="#111827"/>
  <rect x="476" y="194" width="76" height="12" rx="6" fill="#CBD5E1"/>
  <rect x="476" y="220" width="58" height="12" rx="6" fill="#CBD5E1"/>
  <rect x="476" y="246" width="72" height="12" rx="6" fill="#CBD5E1"/>
  <rect x="476" y="296" width="72" height="36" rx="12" fill="#EFF6FF" stroke="#DBEAFE" stroke-width="2"/>
  <path d="M512 304V324M502 314H522" stroke="#2563EB" stroke-width="5" stroke-linecap="round"/>
  <circle cx="392" cy="92" r="28" fill="#2563EB"/>
  <path d="M382 92H402M392 82V102" stroke="#FFFFFF" stroke-width="5" stroke-linecap="round"/>
  <rect x="94" y="400" width="134" height="44" rx="22" fill="#111827"/>
  <path d="M122 422H184" stroke="#FFFFFF" stroke-width="8" stroke-linecap="round"/>
  <circle cx="578" cy="402" r="30" fill="#A78BFA"/>
  <path d="M566 402H590M578 390V414" stroke="#FFFFFF" stroke-width="5" stroke-linecap="round"/>
</svg>
