<svg xmlns="http://www.w3.org/2000/svg" viewBox="0 0 128 128" fill="none">
  <!-- Background circle -->
  <circle cx="64" cy="64" r="60" fill="#F0EBE3" stroke="#D8D2C8" stroke-width="1.5"/>
  
  <!-- Document base -->
  <g transform="translate(34, 22)">
    <!-- Page -->
    <rect x="4" y="2" width="44" height="56" rx="4" fill="white" stroke="#D8D2C8" stroke-width="1.5"/>
    <!-- Folded corner -->
    <path d="M36 2V14H48" stroke="#D8D2C8" stroke-width="1.5" fill="#FAF8F5"/>
    <path d="M36 2L48 14" stroke="#D8D2C8" stroke-width="1"/>
    
    <!-- Text lines -->
    <rect x="12" y="20" width="28" height="2" rx="1" fill="#E8E3DB"/>
    <rect x="12" y="26" width="22" height="2" rx="1" fill="#E8E3DB"/>
    <rect x="12" y="32" width="25" height="2" rx="1" fill="#E8E3DB"/>
    <rect x="12" y="38" width="18" height="2" rx="1" fill="#E8E3DB"/>
    <rect x="12" y="44" width="30" height="2" rx="1" fill="#E8E3DB"/>
    
    <!-- AI sparkle on document -->
    <g transform="translate(38, 36)">
      <path d="M6 0L7.5 4.5L12 6L7.5 7.5L6 12L4.5 7.5L0 6L4.5 4.5Z" fill="#7A8F7A" opacity="0.9"/>
    </g>
  </g>
  
  <!-- AI generation lines (flowing from document) -->
  <g opacity="0.6">
    <path d="M82 50C88 50 92 54 92 60" stroke="#7A8F7A" stroke-width="1.5" stroke-linecap="round" fill="none"/>
    <path d="M82 58C90 58 96 64 96 72" stroke="#7A8F7A" stroke-width="1.5" stroke-linecap="round" fill="none" opacity="0.7"/>
    <path d="M82 66C86 66 90 70 90 74" stroke="#7A8F7A" stroke-width="1.5" stroke-linecap="round" fill="none" opacity="0.5"/>
  </g>
  
  <!-- Small sparkles -->
  <circle cx="100" cy="42" r="2" fill="#C4A882" opacity="0.5"/>
  <circle cx="26" cy="96" r="1.5" fill="#5B6E8A" opacity="0.4"/>
  <circle cx="104" cy="80" r="1" fill="#7A8F7A" opacity="0.4"/>
</svg>
